<?xml version="1.0" encoding="utf-8"?>
<!-- Generator: Adobe Illustrator 16.0.0, SVG Export Plug-In . SVG Version: 6.00 Build 0)  -->
<!DOCTYPE svg PUBLIC "-//W3C//DTD SVG 1.1//EN" "http://www.w3.org/Graphics/SVG/1.1/DTD/svg11.dtd">
<svg version="1.1" id="Layer_1" xmlns="http://www.w3.org/2000/svg" xmlns:xlink="http://www.w3.org/1999/xlink" x="0px" y="0px"
	 width="256px" height="256px" viewBox="0 0 256 256" enable-background="new 0 0 256 256" xml:space="preserve">
<g>
	<path fill="#FFFFFF" d="M-280.167,354.209c10.148-8.243,23.071-13.199,37.167-13.199c14.096,0,27.018,4.956,37.167,13.199H-115
		v-6.916c0-46.636-28.654-75.293-75.292-75.293h-105.41c-2.679,0-5.274,0.122-7.828,0.307v65.457h-13.97v-63.338
		c-4.589,1.057-8.923,2.471-12.988,4.211v59.127h-13.964v-51.088C-361.44,299.564-371,320.418-371,347.293v6.916H-280.167z
		 M-188.435,314.306c0-7.144,4.387-11.532,11.53-11.532h16.148c7.137,0,11.529,4.389,11.529,11.532v16.146
		c0,7.143-4.393,11.533-11.529,11.533h-16.148c-7.144,0-11.53-4.391-11.53-11.533V314.306z"/>
	<path fill="#FFFFFF" d="M-278.387,400.003c0,19.536,15.845,35.38,35.387,35.38c19.542,0,35.381-15.844,35.381-35.38
		c0-19.544-15.839-35.389-35.381-35.389C-262.542,364.614-278.387,380.459-278.387,400.003z"/>
	<path fill="#FFFFFF" d="M-189.268,375.748c3.351,7.404,5.262,15.598,5.262,24.255c0,32.576-26.411,58.987-58.994,58.987
		c-32.583,0-58.994-26.411-58.994-58.987c0-8.657,1.911-16.851,5.262-24.255H-371v76.962c0,46.631,28.655,75.29,75.298,75.29h105.41
		c46.638,0,75.292-28.659,75.292-75.29v-76.962H-189.268z"/>
</g>
<path fill="#FFFFFF" d="M180.702,0H75.294C28.655,0,0,28.655,0,75.292v105.411C0,227.346,28.655,256,75.294,256h105.408
	C227.346,256,256,227.346,256,180.702V75.292C256,28.655,227.346,0,180.702,0z M215.369,83.932
	c-0.827,18.018-13.405,42.693-37.738,74.009c-25.16,32.702-46.449,49.071-63.86,49.071c-10.783,0-19.917-9.964-27.366-29.881
	c-4.982-18.262-9.961-36.523-14.938-54.794c-5.539-19.911-11.476-29.881-17.828-29.881c-1.387,0-6.232,2.914-14.521,8.717
	l-8.708-11.221c9.131-8.023,18.14-16.05,27.009-24.086c12.176-10.53,21.322-16.065,27.414-16.625
	c14.402-1.387,23.268,8.461,26.595,29.542c3.592,22.741,6.08,36.893,7.479,42.426c4.152,18.875,8.72,28.292,13.708,28.292
	c3.872,0,9.688-6.119,17.449-18.357c7.744-12.241,11.898-21.553,12.458-27.952c1.107-10.565-3.047-15.86-12.458-15.86
	c-4.435,0-9,1.021-13.696,3.039c9.095-29.801,26.47-44.274,52.119-43.45C207.5,47.479,216.464,59.812,215.369,83.932z"/>
</svg>
